<svg width="64" height="64" viewBox="0 0 64 64" fill="none" xmlns="http://www.w3.org/2000/svg">
<g clip-path="url(#clip0_1536_25460)">
<path d="M32 0C14.3232 0 0 14.3232 0 32C0 49.6768 14.3232 64 32 64C49.6768 64 64 49.6768 64 32C64 14.3232 49.6768 0 32 0Z" fill="#012FFF"/>
<path d="M40.8247 24.4171L44.3435 22.0547L47.8128 24.4832L46.6398 20.4192L50.0265 17.8751L45.7973 17.7264L44.4261 13.7119L42.9723 17.6933L38.7266 17.7594L42.0637 20.3696L40.8247 24.4171Z" fill="white"/>
<path d="M21.874 21.1299C15.6954 21.1299 10.1445 25.673 10.1445 33.0411C10.1445 40.3927 15.6789 44.9192 21.874 44.9192C28.0857 44.9192 33.6365 40.3761 33.6365 33.0411C33.6365 25.673 28.1022 21.1299 21.874 21.1299ZM21.874 40.6074C18.3552 40.6074 14.7537 38.1624 14.7537 33.008C14.7537 27.8537 18.3552 25.4087 21.874 25.4087C25.4094 25.4087 29.0273 27.8537 29.0273 33.008C29.0273 38.1624 25.4259 40.6074 21.874 40.6074Z" fill="white"/>
<path d="M45.879 28.1836C44.1774 28.1836 42.2776 28.927 41.3029 30.5625V28.5966H37.1562V44.4397H41.435V35.3204C41.435 33.4866 42.5254 32.0328 44.3922 32.0328C46.4572 32.0328 47.3163 33.4206 47.3163 35.1882V44.4397H51.5951V34.4613C51.6116 30.9755 49.8109 28.1836 45.879 28.1836Z" fill="white"/>
</g>
<defs>
<clipPath id="clip0_1536_25460">
<rect width="64" height="64" fill="white"/>
</clipPath>
</defs>
</svg>
